<?xml version="1.0" encoding="utf-8"?>
<!-- Generator: Adobe Illustrator 16.0.0, SVG Export Plug-In . SVG Version: 6.00 Build 0)  -->
<!DOCTYPE svg PUBLIC "-//W3C//DTD SVG 1.1//EN" "http://www.w3.org/Graphics/SVG/1.1/DTD/svg11.dtd">
<svg version="1.1" id="Layer_1" xmlns="http://www.w3.org/2000/svg" xmlns:xlink="http://www.w3.org/1999/xlink" x="0px" y="0px"
	 width="812.195px" height="1080px" viewBox="0 0 812.195 1080" enable-background="new 0 0 812.195 1080" xml:space="preserve">
<rect x="1.355" fill="#93C59E" stroke="#000000" stroke-miterlimit="10" width="812.195" height="1080"/>
<path opacity="0.2" fill="#FFFFFF" d="M0,771.438c0,0,115.854-35.366,221.951,60.976S350.97,989.507,435.117,987.068
	s220.489-129.05,377.079-71.997V1080H0V771.438z"/>
<path opacity="0.2" fill="#FFFFFF" d="M-2.439,955.584c0,0,71.512,41.861,158.57-7.514c44.998-25.521,94.495-107.995,187.49-107.995
	c122.493,0,131.849,159.138,469.929,181.704L812.195,1080H0L-2.439,955.584z"/>
<path opacity="0.3" fill="#FFFFFF" d="M0,881.193c0,0,192.852,84.728,300.124,41.356c203.99-82.475,263.986-157.451,355.482-157.451
	c86.996,0,150.493,72.726,156.59,82.215s0,232.687,0,232.687H0V881.193z"/>
<path opacity="0.2" fill="#FFFFFF" d="M1.355,136.612c0,0,97.779-47.998,193.774-47.998s205.49,118.494,370.481,118.494
	S740.796,79.615,812.195,79.615V0H1.355V136.612z"/>
</svg>
