<?xml version="1.0" encoding="utf-8"?>
<!-- Generator: Adobe Illustrator 16.0.0, SVG Export Plug-In . SVG Version: 6.00 Build 0)  -->
<!DOCTYPE svg PUBLIC "-//W3C//DTD SVG 1.1//EN" "http://www.w3.org/Graphics/SVG/1.1/DTD/svg11.dtd">
<svg version="1.1" id="Layer_1" xmlns="http://www.w3.org/2000/svg" xmlns:xlink="http://www.w3.org/1999/xlink" x="0px" y="0px"
	 width="404px" height="404px" viewBox="0 0 404 404" enable-background="new 0 0 404 404" xml:space="preserve">
<g>
	<path fill-rule="evenodd" clip-rule="evenodd" fill="#FFFFFF" d="M107.511,260.21c-0.302-6.148,0.522-12.016,1.727-17.838
		c2.483-12.004,7.327-22.834,16.38-31.37c16.348-15.418,38.439-14.035,52.771,3.292c2.373,2.868,4.283,6.119,6.395,9.201
		c0.418,0.609,0.785,1.252,1.174,1.88c0.209-0.03,0.417-0.06,0.626-0.091c0-0.931-0.002-1.862,0-2.794
		c0.052-20.24-0.161-40.486,0.241-60.719c0.298-14.987,3.686-29.345,11.189-42.532c7.457-13.109,18.34-22.496,31.662-29.253
		c12.093-6.133,25.067-9.529,38.231-12.345c8.427-1.804,16.854-3.617,25.282-5.416c0.278-0.06,0.579-0.008,1.217-0.008
		c-2.782,11.539-4.924,23.11-8.392,34.27c-9.315,29.977-29.489,49.058-59.716,57.526c-9.822,2.751-19.855,4.139-30.022,4.684
		c-3.184,0.17-3.196,0.149-3.196,3.21c-0.005,18.256-0.005,36.513,0.001,54.769c0,0.806,0.084,1.612,0.158,2.901
		c2.112-1.944,3.818-3.618,5.63-5.167c7.439-6.37,16-7.507,23.989-3.271c4.541,2.407,8.17,5.853,11.348,9.827
		c0.708,0.884,1.387,1.791,1.814,2.346c2.236-3.241,4.077-6.786,6.719-9.571c7.418-7.819,16.455-12.953,27.337-13.987
		c9.625-0.916,17.1,3.057,22.229,11.235c4.522,7.208,6.427,15.295,7.344,23.627c0.491,4.473,0.629,8.984,0.895,13.48
		c0.039,0.664-0.086,1.338-0.143,2.112C236.106,260.21,171.969,260.21,107.511,260.21z M189.71,167.778
		c0.249,0.049,0.5,0.099,0.748,0.146c0.369-0.732,0.727-1.471,1.105-2.198c2.572-4.933,4.854-10.045,7.779-14.76
		c7.305-11.778,16.78-21.678,27.394-30.532c11.051-9.216,23.053-17.056,35.285-24.57c0.695-0.429,1.33-0.958,1.994-1.44
		c-0.704-0.355-1.153-0.328-1.587-0.231c-22.558,5.013-41.53,16.074-56.501,33.753c-7.729,9.126-12.921,19.574-15.282,31.333
		C190.088,162.062,190.01,164.943,189.71,167.778z"/>
	<path fill-rule="evenodd" clip-rule="evenodd" fill="#FFFFFF" d="M187.055,111.783c0-3.822,0.387-7.489-0.078-11.043
		c-1.049-7.998-2.047-16.055-3.951-23.873c-1.93-7.924-5.18-15.483-9.741-22.352c-3.613-5.439-7.704-10.446-13.395-13.893
		c-0.437-0.265-0.92-0.451-1.779-0.867c0.259,0.617,0.309,0.891,0.462,1.079c7.692,9.47,12.218,20.519,15.949,31.962
		c4.265,13.076,6.976,26.532,9.742,39.975c0.059,0.284,0.052,0.582,0.093,1.102c-5.835-1.887-11.168-4.412-16.09-7.771
		c-14.066-9.605-21.587-23.355-24.752-39.716c-3.018-15.599-2.031-31.149,1.149-46.62c0.123-0.589,0.367-1.154,0.546-1.704
		c0.207-0.041,0.387-0.139,0.495-0.087c12.72,6.041,25.231,12.409,35.054,22.881c11.11,11.844,15.556,25.934,14.231,42.014
		c-0.766,9.296-3.242,18.146-6.593,26.792c-0.221,0.566-0.479,1.119-0.744,1.667C187.601,111.438,187.439,111.497,187.055,111.783z"
		/>
	<path fill-rule="evenodd" clip-rule="evenodd" fill="#FFFFFF" d="M109.686,95.906c29.341,1.697,50.088,15.433,61.365,42.678
		c3.722,8.992,6.276,18.32,7.844,27.921c0.119,0.731,0.197,1.47,0.365,2.75c-3.556-0.305-6.824-0.355-10.011-0.895
		c-12.636-2.147-22.479-9.128-30.855-18.416c-11.633-12.899-19.354-28.086-25.446-44.188c-1.078-2.852-1.998-5.764-2.98-8.652
		C109.849,96.75,109.795,96.375,109.686,95.906z"/>
</g>
<text transform="matrix(1 0 0 1 14.0781 384)" fill="#FFFFFF" font-family="'SegoeUI-Bold'" font-size="143">iFarm</text>
</svg>
